<?xml version="1.0" standalone="no"?>
<svg xmlns="http://www.w3.org/2000/svg" viewBox="0 0 83.904 36" width="83.904" height="36"><g fill="#FFD700" color="#FFD700" transform="translate(0 4) scale(0.3111112)"><svg width="90.0" height="90.0" x="0.0" y="0.0" viewBox="0 0 90 90"><g><path d="M45.744,4.648c-14.363,0-26.006,9.708-26.006,26.622c0,12.626,6.792,19.35,12.416,28.051h27.179   c5.624-8.701,12.417-15.424,12.417-28.051C71.749,14.356,60.106,4.648,45.744,4.648z M58.861,51.904   c-0.651,0.926-1.315,1.873-1.978,2.844h-2.119l-0.799-16.89l-0.798,16.89H36.856L36.119,39.14c0.499-0.435,0.979-0.886,1.457-1.338   c0.309-0.302,0.617-0.602,0.924-0.906c0.101,0.276,0.202,0.553,0.311,0.827l0.582,1.489c0.188,0.5,0.405,0.985,0.607,1.478   l0.616,1.474l0.448,1.07l0.868-0.823c0.833-0.791,1.674-1.572,2.501-2.37c0.656-0.642,1.307-1.287,1.949-1.942   c0.59,0.466,1.18,0.935,1.787,1.38l1.201,0.899l1.223,0.875l0.42,0.302l0.237-0.375c0.339-0.537,0.661-1.087,0.989-1.632   c0.319-0.553,0.639-1.105,0.934-1.674c-0.466,0.441-0.909,0.899-1.352,1.359c-0.317,0.338-0.633,0.679-0.946,1.021l-0.758-0.756   l-1.084-1.038c-0.718-0.699-1.468-1.359-2.204-2.035l-0.508-0.467l-0.561,0.501c-0.855,0.767-1.688,1.559-2.517,2.352   c-0.557,0.54-1.106,1.087-1.656,1.633l-0.198-0.393c-0.244-0.474-0.471-0.954-0.728-1.421l-0.751-1.412   c-0.248-0.471-0.519-0.932-0.778-1.398l-0.385-0.696l-0.424,0.589c-0.406,0.565-0.788,1.151-1.18,1.729   c-0.35,0.539-0.697,1.08-1.027,1.635l-0.058-1.217l-0.798,16.89h-0.657c-0.663-0.971-1.327-1.918-1.977-2.844   c-4.462-6.357-8.315-11.847-8.315-20.635c0-6.778,2.151-12.436,6.22-16.363c3.8-3.667,9.203-5.687,15.214-5.687   c6.01,0,11.413,2.019,15.213,5.687c4.069,3.927,6.22,9.584,6.22,16.363C67.177,40.057,63.323,45.547,58.861,51.904z"></path><path d="M34.078,64.539c0.479,2.018,1.994,2.453,2.313,4.641c0.183,1.256-0.393,2.055-0.182,4.002   c0.09,0.828,1.684,2.961,1.754,3.643c0.191,1.846,0,3.215,0,3.215c0.048,1.707,2.899,2.598,4.023,3.027   c0.951,0.365,1.912,2.287,3.693,2.287c1.812,0,2.84-1.924,3.822-2.287c1.13-0.416,3.607-1.455,3.988-3.104   c0.167-0.721,0.079-1.283,0.263-3.066c0.079-0.773,1.594-2.814,1.732-3.775c0.412-2.852-0.548-2.619-0.232-4.514   c0.229-1.369,1.779-2.434,2.07-3.699c0.251-1.1,0.526-2.121,0.826-3.016H33.336C33.602,62.688,33.849,63.58,34.078,64.539z"></path></g></svg></g><path fill="#FFD700" fill-rule="nonzero" d="M7.68 19.44L0 19.44L0 0L2.71 0L2.71 17.50L7.68 17.50L7.68 19.44ZM11.30 19.63L11.30 19.63Q10.49 19.63 10.03 19.20Q9.58 18.77 9.40 18.12Q9.22 17.47 9.22 16.80L9.22 16.80L9.22 5.57L11.78 5.57L11.78 16.03Q11.78 16.78 12 17.20Q12.22 17.62 12.89 17.62L12.89 17.62Q13.32 17.62 13.79 17.36Q14.26 17.11 14.69 16.75L14.69 16.75L14.69 5.57L17.26 5.57L17.26 19.44L14.69 19.44L14.69 18.07Q14.02 18.72 13.16 19.18Q12.31 19.63 11.30 19.63ZM23.66 19.63L23.66 19.63Q21.96 19.63 21.08 18.95Q20.21 18.26 19.91 17.02Q19.61 15.77 19.61 14.11L19.61 14.11L19.61 10.92Q19.61 9.17 19.92 7.93Q20.23 6.70 21.11 6.04Q21.98 5.38 23.66 5.38L23.66 5.38Q25.18 5.38 26.00 5.87Q26.83 6.36 27.14 7.33Q27.46 8.30 27.46 9.74L27.46 9.74L27.46 10.56L25.13 10.56L25.13 9.72Q25.13 8.81 25.01 8.28Q24.89 7.75 24.58 7.51Q24.26 7.27 23.69 7.27L23.69 7.27Q23.06 7.27 22.73 7.56Q22.39 7.85 22.28 8.53Q22.18 9.22 22.18 10.39L22.18 10.39L22.18 14.76Q22.18 16.54 22.51 17.14Q22.85 17.74 23.71 17.74L23.71 17.74Q24.36 17.74 24.66 17.44Q24.96 17.14 25.04 16.58Q25.13 16.03 25.13 15.34L25.13 15.34L25.13 14.21L27.46 14.21L27.46 15.17Q27.46 16.56 27.13 17.57Q26.81 18.58 25.98 19.10Q25.15 19.63 23.66 19.63ZM33.58 19.63L33.58 19.63Q31.94 19.63 31.06 19.00Q30.17 18.36 29.82 17.12Q29.47 15.89 29.47 14.09L29.47 14.09L29.47 10.92Q29.47 9.07 29.83 7.85Q30.19 6.62 31.09 6.00Q31.99 5.38 33.58 5.38L33.58 5.38Q35.33 5.38 36.16 6.10Q36.98 6.82 37.25 8.17Q37.51 9.53 37.51 11.42L37.51 11.42L37.51 12.55L32.04 12.55L32.04 15.34Q32.04 16.18 32.20 16.70Q32.35 17.23 32.70 17.48Q33.05 17.74 33.60 17.74L33.60 17.74Q34.18 17.74 34.48 17.46Q34.78 17.18 34.88 16.67Q34.99 16.15 34.99 15.46L34.99 15.46L34.99 14.62L37.49 14.62L37.49 15.14Q37.49 17.23 36.60 18.43Q35.71 19.63 33.58 19.63ZM32.04 10.42L32.04 11.16L34.99 11.16L34.99 9.91Q34.99 9.05 34.90 8.46Q34.80 7.87 34.50 7.57Q34.20 7.27 33.55 7.27L33.55 7.27Q32.93 7.27 32.60 7.56Q32.28 7.85 32.16 8.53Q32.04 9.22 32.04 10.42L32.04 10.42ZM44.42 14.35L42.50 14.35L42.50 10.44L39.14 10.44L39.14 8.50L42.50 8.50L42.50 4.58L44.42 4.58L44.42 8.50L47.90 8.50L47.90 10.44L44.42 10.44L44.42 14.35Z" transform="translate(36, 8.28)"></path></svg>