<?xml version="1.0" standalone="no"?>
<svg xmlns="http://www.w3.org/2000/svg" viewBox="0 0 101.808 36" width="101.808" height="36"><g fill="#FFD700" color="#FFD700" transform="translate(0 3.9999999999999982) scale(0.2800001)"><svg width="100.0" height="100.0" x="0.0" y="0.0" viewBox="0 0 100 100"><g><polygon fill="currentColor" points="86.977,1 10.939,60.156 35.054,60.188 1.998,98.825 79.127,46.997 48.646,47.005  "></polygon></g></svg></g><path fill="#FFD700" fill-rule="nonzero" d="M7.58 19.44L0 19.44L0 0L7.54 0L7.54 2.02L2.71 2.02L2.71 8.45L6.62 8.45L6.62 10.37L2.71 10.37L2.71 17.50L7.58 17.50L7.58 19.44ZM12.12 19.44L9.55 19.44L9.55 5.57L12.12 5.57L12.12 6.94Q12.82 6.29 13.66 5.83Q14.50 5.38 15.50 5.38L15.50 5.38Q16.34 5.38 16.79 5.81Q17.23 6.24 17.41 6.89Q17.59 7.54 17.59 8.21L17.59 8.21L17.59 19.44L15.02 19.44L15.02 8.95Q15.02 8.21 14.81 7.80Q14.59 7.39 13.92 7.39L13.92 7.39Q13.49 7.39 13.02 7.64Q12.55 7.90 12.12 8.26L12.12 8.26L12.12 19.44ZM23.93 19.63L23.93 19.63Q22.30 19.63 21.41 19.00Q20.52 18.36 20.17 17.12Q19.82 15.89 19.82 14.09L19.82 14.09L19.82 10.92Q19.82 9.07 20.18 7.85Q20.54 6.62 21.44 6.00Q22.34 5.38 23.93 5.38L23.93 5.38Q25.68 5.38 26.51 6.10Q27.34 6.82 27.60 8.17Q27.86 9.53 27.86 11.42L27.86 11.42L27.86 12.55L22.39 12.55L22.39 15.34Q22.39 16.18 22.55 16.70Q22.70 17.23 23.05 17.48Q23.40 17.74 23.95 17.74L23.95 17.74Q24.53 17.74 24.83 17.46Q25.13 17.18 25.24 16.67Q25.34 16.15 25.34 15.46L25.34 15.46L25.34 14.62L27.84 14.62L27.84 15.14Q27.84 17.23 26.95 18.43Q26.06 19.63 23.93 19.63ZM22.39 10.42L22.39 11.16L25.34 11.16L25.34 9.91Q25.34 9.05 25.25 8.46Q25.15 7.87 24.85 7.57Q24.55 7.27 23.90 7.27L23.90 7.27Q23.28 7.27 22.96 7.56Q22.63 7.85 22.51 8.53Q22.39 9.22 22.39 10.42L22.39 10.42ZM32.83 19.44L30.26 19.44L30.26 5.57L32.83 5.57L32.83 7.54Q33.60 6.26 34.37 5.83Q35.14 5.40 35.90 5.40L35.90 5.40Q36 5.40 36.08 5.40Q36.17 5.40 36.31 5.42L36.31 5.42L36.31 8.26Q36.02 8.14 35.65 8.05Q35.28 7.97 34.90 7.97L34.90 7.97Q34.30 7.97 33.80 8.24Q33.31 8.52 32.83 9.31L32.83 9.31L32.83 19.44ZM41.50 23.74L41.50 23.74Q40.25 23.74 39.24 23.47Q38.23 23.21 37.66 22.63Q37.08 22.06 37.08 21.12L37.08 21.12Q37.08 20.45 37.37 19.94Q37.66 19.44 38.11 19.07Q38.57 18.70 39.07 18.46L39.07 18.46Q38.40 18.26 38.06 17.84Q37.73 17.42 37.73 16.97L37.73 16.97Q37.73 16.20 38.14 15.65Q38.54 15.10 39.26 14.45L39.26 14.45Q38.47 13.85 38.06 12.91Q37.66 11.98 37.66 10.32L37.66 10.32Q37.66 8.69 38.10 7.60Q38.54 6.50 39.42 5.94Q40.30 5.38 41.57 5.38L41.57 5.38Q42.70 5.38 43.38 5.76Q44.06 6.14 44.42 6.91L44.42 6.91Q44.54 6.72 45.07 6.25Q45.60 5.78 46.30 5.47L46.30 5.47L46.68 5.30L47.33 6.96Q47.02 7.01 46.50 7.19Q45.98 7.37 45.54 7.55Q45.10 7.73 44.98 7.85L44.98 7.85Q45.14 8.26 45.28 9.02Q45.41 9.79 45.41 10.39L45.41 10.39Q45.41 11.81 45.05 12.89Q44.69 13.97 43.86 14.58Q43.03 15.19 41.57 15.19L41.57 15.19Q41.26 15.19 40.90 15.14Q40.54 15.10 40.25 15.02L40.25 15.02Q40.10 15.24 39.95 15.53Q39.79 15.82 39.79 16.08L39.79 16.08Q39.79 16.34 40.07 16.50Q40.34 16.66 40.94 16.70L40.94 16.70L43.10 16.90Q44.74 17.04 45.53 17.88Q46.32 18.72 46.32 20.28L46.32 20.28Q46.32 21.41 45.79 22.19Q45.26 22.97 44.20 23.35Q43.13 23.74 41.50 23.74ZM41.69 21.72L41.69 21.72Q43.06 21.72 43.70 21.40Q44.35 21.07 44.35 20.35L44.35 20.35Q44.35 19.92 44.20 19.63Q44.04 19.34 43.63 19.18Q43.22 19.01 42.46 18.94L42.46 18.94L40.27 18.74Q40.01 19.01 39.77 19.27Q39.53 19.54 39.38 19.84Q39.24 20.14 39.24 20.47L39.24 20.47Q39.24 21.10 39.77 21.41Q40.30 21.72 41.69 21.72ZM41.57 13.39L41.57 13.39Q42.12 13.39 42.44 13.19Q42.77 12.98 42.94 12.59Q43.10 12.19 43.16 11.62Q43.22 11.04 43.22 10.32L43.22 10.32Q43.22 9.60 43.16 9.01Q43.10 8.42 42.95 8.00Q42.79 7.58 42.47 7.37Q42.14 7.15 41.59 7.15L41.59 7.15Q41.06 7.15 40.72 7.37Q40.37 7.58 40.20 7.98Q40.03 8.38 39.96 8.96Q39.89 9.55 39.89 10.32L39.89 10.32Q39.89 10.97 39.95 11.53Q40.01 12.10 40.19 12.50Q40.37 12.91 40.70 13.15Q41.04 13.39 41.57 13.39ZM48.43 22.92L48.12 22.92L48.12 20.95Q49.06 20.95 49.61 20.87Q50.16 20.78 50.40 20.56Q50.64 20.33 50.64 19.92L50.64 19.92Q50.64 19.70 50.47 18.96Q50.30 18.22 50.11 17.38L50.11 17.38L47.33 5.57L49.92 5.57L51.79 15.94L53.59 5.57L56.18 5.57L52.87 20.21Q52.66 21.22 52.08 21.80Q51.50 22.39 50.60 22.66Q49.70 22.92 48.43 22.92L48.43 22.92ZM62.33 14.35L60.41 14.35L60.41 10.44L57.05 10.44L57.05 8.50L60.41 8.50L60.41 4.58L62.33 4.58L62.33 8.50L65.81 8.50L65.81 10.44L62.33 10.44L62.33 14.35Z" transform="translate(36, 8.28)"></path></svg>