<?xml version="1.0" standalone="no"?>
<svg xmlns="http://www.w3.org/2000/svg" viewBox="0 0 82.128 36" width="82.128" height="36"><g fill="#0466b2" color="#0466b2" transform="translate(0 4) scale(0.3076924)"><svg width="91.0" height="91.0" x="0.0" y="0.0" viewBox="0 0 91 91"><g><path d="M34.9,77.9c3.6,1.3,7.4,1.9,11.1,1.9c11.6,0,22.8-5.9,29.1-16.1c0.5-0.8,0.2-1.8-0.5-2.3c-0.8-0.5-1.8-0.2-2.3,0.5   C64.7,74.1,49.5,79.5,36,74.8c-11.5-4-19.4-14.5-20.4-26.3l6.1,0.1l-7.6-12.1L6.2,48.3l6,0.1C13.2,61.6,22.1,73.5,34.9,77.9z"></path><path d="M57.4,13.6c-14.9-5.2-31.8,0.8-40.2,14.2c-0.5,0.8-0.2,1.8,0.5,2.3c0.8,0.5,1.8,0.2,2.3-0.5c7.5-12.1,22.7-17.5,36.2-12.8   c11.1,3.9,18.8,13.8,20.3,25.1l-5.7,0l7.7,11.9l7.8-11.9l-6.4,0C78.5,29.2,69.8,17.9,57.4,13.6z"></path><path d="M36,38.8c-2.7,2.7-5.3,5.2-6.3,8.1c-4.5,12,12,19.7,12.1,19.8c0.1,0,0.2,0.1,0.3,0.1c0.2,0,0.4-0.1,0.5-0.3   c0.2-0.3,0.1-0.6-0.2-0.8c-2.8-1.9-3.9-4.6-2.9-7.3c0.6-1.8,1.9-3.2,3.5-3.9c1.6-0.7,4.1-0.8,6.1,0.2c1.5,0.8,2.3,2.1,2.6,4   c0.5,3.3-1.7,6.2-1.7,6.2c-0.2,0.2-0.2,0.5,0,0.7s0.4,0.3,0.6,0.3c2.3-0.4,13-6,13-16.2c0-11-11.5-21.5-18.3-26   c-0.2-0.1-0.5-0.1-0.7,0c-0.2,0.1-0.3,0.4-0.3,0.6c0.5,2.2-0.6,4.6-1.7,6.6C41,33.8,38.5,36.3,36,38.8z"></path></g></svg></g><path fill="#0466b2" fill-rule="nonzero" d="M10.75 1.51L10.75 1.51L10.03 2.54Q8.40 1.54 6.67 1.54L6.67 1.54Q4.49 1.54 3.14 3.41L3.14 3.41Q1.90 5.16 1.90 8.02L1.90 8.02Q1.90 11.09 3.41 12.77L3.41 12.77Q4.70 14.21 6.77 14.21L6.77 14.21Q8.30 14.21 9.65 13.63L9.65 13.63L9.65 8.98L6.94 8.98L6.94 7.42L11.40 7.42L11.40 14.40Q9.12 15.77 6.55 15.77L6.55 15.77Q3.14 15.77 1.37 13.03L1.37 13.03Q0 10.92 0 7.92L0 7.92Q0 4.56 1.87 2.23L1.87 2.23Q3.67 0 6.48 0L6.48 0Q8.88 0 10.75 1.51ZM22.92 8.86L22.92 15.48L21.72 15.48L21.48 14.30Q20.02 15.77 17.83 15.77L17.83 15.77Q16.18 15.77 15.19 14.84Q14.21 13.92 14.21 12.38L14.21 12.38Q14.21 8.64 19.68 8.64L19.68 8.64L21.34 8.64L21.34 8.50Q21.34 5.64 18.55 5.64L18.55 5.64Q16.97 5.64 15.50 6.70L15.50 6.70L14.98 5.81Q16.63 4.30 19.01 4.30L19.01 4.30Q20.90 4.30 21.91 5.47Q22.92 6.65 22.92 8.86L22.92 8.86ZM21.34 12.77L21.34 9.82L19.87 9.82Q15.94 9.82 15.94 12.24L15.94 12.24Q15.94 13.27 16.55 13.86Q17.16 14.45 18.26 14.45L18.26 14.45Q19.22 14.45 20.11 13.97Q21 13.49 21.34 12.77L21.34 12.77ZM32.86 5.33L32.33 6.22Q31.13 5.59 29.71 5.59L29.71 5.59Q28.75 5.59 28.21 6.01Q27.67 6.43 27.67 7.15L27.67 7.15Q27.67 7.92 28.16 8.34Q28.66 8.76 30.05 9.17L30.05 9.17Q32.02 9.77 32.78 10.51Q33.55 11.26 33.55 12.60L33.55 12.60Q33.55 14.02 32.48 14.89Q31.42 15.77 29.74 15.77L29.74 15.77Q27.53 15.77 25.90 14.57L25.90 14.57Q25.97 14.45 26.14 14.16L26.14 14.16Q26.30 13.85 26.42 13.68L26.42 13.68Q27.82 14.45 29.42 14.45L29.42 14.45Q31.94 14.45 31.94 12.55L31.94 12.55Q31.94 11.78 31.40 11.35Q30.86 10.92 29.40 10.54L29.40 10.54Q25.99 9.58 25.99 7.20L25.99 7.20Q25.99 5.93 26.99 5.11Q27.98 4.30 29.54 4.30L29.54 4.30Q31.39 4.30 32.86 5.33L32.86 5.33ZM40.18 15.48L40.18 10.68L35.71 10.68L35.71 9.36L40.18 9.36L40.18 4.58L41.66 4.58L41.66 9.36L46.13 9.36L46.13 10.68L41.66 10.68L41.66 15.48L40.18 15.48Z" transform="translate(36, 10.116)"></path></svg>